# xmcd
#
# Track frame offsets: 
#        150
#        14161
#        28688
#        41432
#        56660
#        71867
#        86048
#        99881
#        115450
#        128291
#        141968
#        156370
#        169379
#        182773
#        196504
#        209747
#        222239
#        234605
#
# Disc length: 3312 seconds
#
# Revision: 1
# Processed by: cddbd v1.5.2PL0 Copyright (c) Steve Scherf et al.
# Submitted via: ExactAudioCopy v0.95b2
#
DISCID=0a0cee12
DTITLE=Leroy Carr - The Essential Leroy Carr Disc 1
DYEAR=2002
DGENRE=Blues
TTITLE0=Midnight Hour Blues 
TTITLE1=Tired Of Your Low Down Ways 
TTITLE2=Memphis Town 
TTITLE3=Straight Alky Blues Part One 
TTITLE4=Straight Alky Blues Part Two
TTITLE5=I'm Going Away And Leave My Baby 
TTITLE6=Kokomo Blues - (featuring Strapper Blackwell) 
TTITLE7=Getting All Wet 
TTITLE8=Alabama Woman Blues 
TTITLE9=How Long, How Long Blues 
TTITLE10=Quittin' Papa 
TTITLE11=The Dirty Dozen 
TTITLE12=Papa's On The Housetop 
TTITLE13=Gone Mother Blues 
TTITLE14=It's Too Short 
TTITLE15=D Blues - (featuring Scrapper Blackwell) 
TTITLE16=Papa Wants A Cookie 
TTITLE17=Prison Bound Blues 
EXTD=william hale
EXTT0=
EXTT1=
EXTT2=
EXTT3=
EXTT4=
EXTT5=
EXTT6=
EXTT7=
EXTT8=
EXTT9=
EXTT10=
EXTT11=
EXTT12=
EXTT13=
EXTT14=
EXTT15=
EXTT16=
EXTT17=
PLAYORDER=
